# xmcd
#
# Track frame offsets: 
#        150
#        23418
#        42495
#        62270
#        87017
#        107273
#        123547
#        140350
#        156233
#        176391
#        200397
#        222579
#        243135
#        260893
#        277560
#
# Disc length: 3909 seconds
#
# Revision: 3
# Processed by: cddbd v1.5.2PL0 Copyright (c) Steve Scherf et al.
# Submitted via: ExactAudioCopy v1.0b3
#
DISCID=c10f430f
DTITLE=Stuart Smith - Heaven and Earth
DYEAR=1999
DGENRE=Hard Rock
TTITLE0=Don't Keep Me Waiting
TTITLE1=Heaven and Earth
TTITLE2=See That My Grave Is Kept Clean
TTITLE3=When A Blind Man Cries
TTITLE4=Memories
TTITLE5=Dreams of Desire (Instrumental)
TTITLE6=Trouble In Paradise
TTITLE7=Shadow Of The Tyburn Tree
TTITLE8=It's Got To Be Love
TTITLE9=When The Blues Catch Up With You
TTITLE10=Do You Ever Think Of Me?
TTITLE11=Road to Melniboné (Instrumental)
TTITLE12=Howlin' at the Moon
TTITLE13=Telstar 2000 (Instrumental)
TTITLE14=Lose My Number
EXTD=
EXTT0=
EXTT1=
EXTT2=
EXTT3=
EXTT4=
EXTT5=
EXTT6=
EXTT7=
EXTT8=
EXTT9=
EXTT10=
EXTT11=
EXTT12=
EXTT13=
EXTT14=
PLAYORDER=
